<svg width="13" height="14" viewBox="0 0 13 14" fill="none" xmlns="http://www.w3.org/2000/svg">
<path fill-rule="evenodd" clip-rule="evenodd" d="M0.833313 2.33333C0.833313 1.32081 1.65412 0.5 2.66665 0.5H9.33331C10.3458 0.5 11.1666 1.32081 11.1666 2.33333V5C11.1666 5.27614 10.9428 5.5 10.6666 5.5C10.3905 5.5 10.1666 5.27614 10.1666 5V2.33333C10.1666 1.8731 9.79355 1.5 9.33331 1.5H2.66665C2.20641 1.5 1.83331 1.8731 1.83331 2.33333V11.6667C1.83331 12.1269 2.20641 12.5 2.66665 12.5H7.39999C7.67613 12.5 7.89999 12.7239 7.89999 13C7.89999 13.2761 7.67613 13.5 7.39999 13.5H2.66665C1.65412 13.5 0.833313 12.6792 0.833313 11.6667V2.33333ZM3.49998 3.66667C3.49998 3.39052 3.72384 3.16667 3.99998 3.16667H7.99998C8.27612 3.16667 8.49998 3.39052 8.49998 3.66667C8.49998 3.94281 8.27612 4.16667 7.99998 4.16667H3.99998C3.72384 4.16667 3.49998 3.94281 3.49998 3.66667ZM3.49998 6.33333C3.49998 6.05719 3.72384 5.83333 3.99998 5.83333H4.00665C4.28279 5.83333 4.50665 6.05719 4.50665 6.33333C4.50665 6.60948 4.28279 6.83333 4.00665 6.83333H3.99998C3.72384 6.83333 3.49998 6.60948 3.49998 6.33333ZM5.49998 6.33333C5.49998 6.05719 5.72384 5.83333 5.99998 5.83333H6.00665C6.28279 5.83333 6.50665 6.05719 6.50665 6.33333C6.50665 6.60948 6.28279 6.83333 6.00665 6.83333H5.99998C5.72384 6.83333 5.49998 6.60948 5.49998 6.33333ZM7.49998 6.33333C7.49998 6.05719 7.72384 5.83333 7.99998 5.83333H8.00665C8.28279 5.83333 8.50665 6.05719 8.50665 6.33333C8.50665 6.60948 8.28279 6.83333 8.00665 6.83333H7.99998C7.72384 6.83333 7.49998 6.60948 7.49998 6.33333ZM3.49998 8.33333C3.49998 8.05719 3.72384 7.83333 3.99998 7.83333H4.00665C4.28279 7.83333 4.50665 8.05719 4.50665 8.33333C4.50665 8.60948 4.28279 8.83333 4.00665 8.83333H3.99998C3.72384 8.83333 3.49998 8.60948 3.49998 8.33333ZM5.49998 8.33333C5.49998 8.05719 5.72384 7.83333 5.99998 7.83333H6.00665C6.28279 7.83333 6.50665 8.05719 6.50665 8.33333C6.50665 8.60948 6.28279 8.83333 6.00665 8.83333H5.99998C5.72384 8.83333 5.49998 8.60948 5.49998 8.33333ZM3.49998 10.3333C3.49998 10.0572 3.72384 9.83333 3.99998 9.83333H4.00665C4.28279 9.83333 4.50665 10.0572 4.50665 10.3333C4.50665 10.6095 4.28279 10.8333 4.00665 10.8333H3.99998C3.72384 10.8333 3.49998 10.6095 3.49998 10.3333ZM5.49998 10.3333C5.49998 10.0572 5.72384 9.83333 5.99998 9.83333H6.00665C6.28279 9.83333 6.50665 10.0572 6.50665 10.3333C6.50665 10.6095 6.28279 10.8333 6.00665 10.8333H5.99998C5.72384 10.8333 5.49998 10.6095 5.49998 10.3333Z" fill="#566DED"/>
<path fill-rule="evenodd" clip-rule="evenodd" d="M10.6 6.5C10.8761 6.5 11.1 6.72386 11.1 7V7.13947C11.6787 7.2321 12.2011 7.48523 12.537 7.87227C12.6875 8.04563 12.7005 8.29918 12.5687 8.48711C12.4369 8.67505 12.1941 8.74908 11.9798 8.66665L11.1 8.32812V9.53929C11.4923 9.60195 11.854 9.73792 12.1501 9.93534C12.5653 10.2121 12.9 10.6494 12.9 11.2C12.9 11.7506 12.5653 12.1879 12.1501 12.4647C11.854 12.6621 11.4923 12.7981 11.1 12.8607V13C11.1 13.2761 10.8761 13.5 10.6 13.5C10.3238 13.5 10.1 13.2761 10.1 13V12.8605C9.5213 12.7679 8.99888 12.5148 8.66297 12.1277C8.5125 11.9544 8.49942 11.7008 8.63123 11.5129C8.76304 11.325 9.00589 11.2509 9.22013 11.3334L10.1 11.6719V10.4607C9.70766 10.3981 9.34599 10.2621 9.04983 10.0647C8.63463 9.7879 8.29998 9.35064 8.29998 8.8C8.29998 8.24936 8.63463 7.8121 9.04983 7.53534C9.34599 7.33791 9.70766 7.20195 10.1 7.13929V7C10.1 6.72386 10.3238 6.5 10.6 6.5ZM10.1 8.15842C9.90414 8.2062 9.73564 8.27999 9.60448 8.36741C9.36823 8.5249 9.29998 8.68764 9.29998 8.8C9.29998 8.91236 9.36823 9.0751 9.60448 9.23258C9.73564 9.32001 9.90414 9.3938 10.1 9.44158V8.15842ZM11.1 10.5584V11.8416C11.2958 11.7938 11.4643 11.72 11.5955 11.6326C11.8317 11.4751 11.9 11.3124 11.9 11.2C11.9 11.0876 11.8317 10.9249 11.5955 10.7674C11.4643 10.68 11.2958 10.6062 11.1 10.5584Z" fill="#566DED"/>
</svg>