
<svg width="16" height="16" viewBox="0 0 16 16" fill="none" xmlns="http://www.w3.org/2000/svg">
<path fill-rule="evenodd" clip-rule="evenodd" d="M3.24998 0.708328C3.59516 0.708328 3.87498 0.98815 3.87498 1.33333V9.12853C4.24794 9.23427 4.59145 9.43389 4.87043 9.71288C5.3002 10.1426 5.54165 10.7255 5.54165 11.3333C5.54165 11.9411 5.3002 12.524 4.87043 12.9538C4.59145 13.2328 4.24794 13.4324 3.87498 13.5381V14.6667C3.87498 15.0118 3.59516 15.2917 3.24998 15.2917C2.9048 15.2917 2.62498 15.0118 2.62498 14.6667V13.5381C2.25202 13.4324 1.90851 13.2328 1.62953 12.9538C1.19976 12.524 0.958313 11.9411 0.958313 11.3333C0.958313 10.7255 1.19976 10.1426 1.62953 9.71288C1.90851 9.43389 2.25202 9.23427 2.62498 9.12853V1.33333C2.62498 0.98815 2.9048 0.708328 3.24998 0.708328ZM8.24998 0.708328C8.59516 0.708328 8.87498 0.98815 8.87498 1.33333V2.46186C9.24794 2.5676 9.59145 2.76722 9.87043 3.04621C10.3002 3.47598 10.5416 4.05887 10.5416 4.66666C10.5416 5.27445 10.3002 5.85734 9.87043 6.28711C9.59145 6.5661 9.24794 6.76572 8.87498 6.87146V14.6667C8.87498 15.0118 8.59516 15.2917 8.24998 15.2917C7.9048 15.2917 7.62498 15.0118 7.62498 14.6667V6.87146C7.25202 6.76572 6.90851 6.5661 6.62953 6.28711C6.19976 5.85734 5.95831 5.27445 5.95831 4.66666C5.95831 4.05887 6.19976 3.47598 6.62953 3.04621C6.90851 2.76722 7.25202 2.5676 7.62498 2.46186V1.33333C7.62498 0.98815 7.9048 0.708328 8.24998 0.708328ZM13.25 0.708328C13.5952 0.708328 13.875 0.98815 13.875 1.33333V9.12853C14.2479 9.23427 14.5914 9.43389 14.8704 9.71288C15.3002 10.1426 15.5416 10.7255 15.5416 11.3333C15.5416 11.9411 15.3002 12.524 14.8704 12.9538C14.5914 13.2328 14.2479 13.4324 13.875 13.5381V14.6667C13.875 15.0118 13.5952 15.2917 13.25 15.2917C12.9048 15.2917 12.625 15.0118 12.625 14.6667V13.5381C12.252 13.4324 11.9085 13.2328 11.6295 12.9538C11.1998 12.524 10.9583 11.9411 10.9583 11.3333C10.9583 10.7255 11.1998 10.1426 11.6295 9.71288C11.9085 9.43389 12.252 9.23427 12.625 9.12853V1.33333C12.625 0.98815 12.9048 0.708328 13.25 0.708328ZM8.24998 3.62499C7.97371 3.62499 7.70876 3.73474 7.51341 3.93009C7.31806 4.12544 7.20831 4.39039 7.20831 4.66666C7.20831 4.94293 7.31806 5.20788 7.51341 5.40323C7.70876 5.59858 7.97371 5.70833 8.24998 5.70833C8.52625 5.70833 8.7912 5.59858 8.98655 5.40323C9.1819 5.20788 9.29165 4.94293 9.29165 4.66666C9.29165 4.39039 9.1819 4.12544 8.98655 3.93009C8.7912 3.73474 8.52625 3.62499 8.24998 3.62499ZM3.24998 10.2917C2.97371 10.2917 2.70876 10.4014 2.51341 10.5968C2.31806 10.7921 2.20831 11.0571 2.20831 11.3333C2.20831 11.6096 2.31806 11.8745 2.51341 12.0699C2.70876 12.2652 2.97371 12.375 3.24998 12.375C3.52625 12.375 3.7912 12.2652 3.98655 12.0699C4.1819 11.8745 4.29165 11.6096 4.29165 11.3333C4.29165 11.0571 4.1819 10.7921 3.98655 10.5968C3.7912 10.4014 3.52625 10.2917 3.24998 10.2917ZM13.25 10.2917C12.9737 10.2917 12.7088 10.4014 12.5134 10.5968C12.3181 10.7921 12.2083 11.0571 12.2083 11.3333C12.2083 11.6096 12.3181 11.8745 12.5134 12.0699C12.7088 12.2652 12.9737 12.375 13.25 12.375C13.5262 12.375 13.7912 12.2652 13.9865 12.0699C14.1819 11.8745 14.2916 11.6096 14.2916 11.3333C14.2916 11.0571 14.1819 10.7921 13.9865 10.5968C13.7912 10.4014 13.5262 10.2917 13.25 10.2917Z" fill="#566DED"/>
</svg>