<svg width="10" height="6" viewBox="0 0 10 6" fill="none" xmlns="http://www.w3.org/2000/svg">
<path fill-rule="evenodd" clip-rule="evenodd" d="M9.70701 5.707C9.51948 5.89447 9.26518 5.99978 9.00001 5.99978C8.73485 5.99978 8.48054 5.89447 8.29301 5.707L5.00001 2.414L1.70701 5.707C1.51841 5.88916 1.26581 5.98995 1.00361 5.98767C0.741413 5.98539 0.4906 5.88023 0.305192 5.69482C0.119784 5.50941 0.0146148 5.2586 0.0123364 4.9964C0.010058 4.7342 0.110853 4.4816 0.293011 4.293L4.29301 0.293C4.48054 0.105529 4.73485 0.000213623 5.00001 0.000213623C5.26518 0.000213623 5.51948 0.105529 5.70701 0.293L9.70701 4.293C9.89448 4.48053 9.9998 4.73483 9.9998 5C9.9998 5.26516 9.89448 5.51947 9.70701 5.707Z" fill="#5F647A"/>
</svg>