<svg width="18" height="14" viewBox="0 0 18 14" fill="none" xmlns="http://www.w3.org/2000/svg">
<path fill-rule="evenodd" clip-rule="evenodd" d="M7.77527 0.724684C8.01935 0.968762 8.01935 1.36449 7.77527 1.60857L3.00888 6.37496H16.5C16.8452 6.37496 17.125 6.65478 17.125 6.99996C17.125 7.34514 16.8452 7.62496 16.5 7.62496H3.00888L7.77527 12.3914C8.01935 12.6354 8.01935 13.0312 7.77527 13.2752C7.5312 13.5193 7.13547 13.5193 6.89139 13.2752L1.05818 7.44203C1.05814 7.44198 1.0581 7.44194 1.05806 7.4419C1.05762 7.44146 1.05718 7.44102 1.05673 7.44057C0.997469 7.38096 0.952699 7.31237 0.922424 7.2392C0.891866 7.16551 0.875 7.0847 0.875 6.99996C0.875 6.91522 0.891866 6.83441 0.922424 6.76072C0.952924 6.687 0.998135 6.61794 1.05806 6.55802L6.89139 0.724684C7.13547 0.480607 7.5312 0.480607 7.77527 0.724684Z" fill="#2F365B"/>
</svg>