<svg width="18" height="14" viewBox="0 0 18 14" fill="none" xmlns="http://www.w3.org/2000/svg">
<path fill-rule="evenodd" clip-rule="evenodd" d="M17.125 6.99996C17.125 6.91522 17.1081 6.83441 17.0776 6.76072C17.0626 6.72454 17.0441 6.68947 17.022 6.65606C16.9992 6.62141 16.9725 6.58853 16.942 6.55802L11.1086 0.724684C10.8645 0.480607 10.4688 0.480607 10.2247 0.724684C9.98065 0.968762 9.98065 1.36449 10.2247 1.60857L14.9911 6.37496L1.5 6.37496C1.15482 6.37496 0.875 6.65478 0.875 6.99996C0.875 7.34514 1.15482 7.62496 1.5 7.62496L14.9911 7.62496L10.2247 12.3914C9.98065 12.6354 9.98065 13.0312 10.2247 13.2752C10.4688 13.5193 10.8645 13.5193 11.1086 13.2752L16.9418 7.44203L16.9433 7.44057C17.0002 7.38328 17.0462 7.315 17.0776 7.2392C17.1081 7.16551 17.125 7.0847 17.125 6.99996Z" fill="#2F365B"/>
</svg>