<!-- <svg width="18" height="15" viewBox="0 0 18 15" fill="#5F647A" xmlns="http://www.w3.org/2000/svg">
<path d="M8.85 14.55C8.7 14.55 8.55 14.5 8.4 14.35L2.05 7.94998C1.65 7.54998 1.3 7.04998 1.1 6.54998C0.9 6.04998 0.75 5.44998 0.75 4.89998C0.75 4.29998 0.85 3.74998 1.1 3.24998C1.3 2.69998 1.65 2.24998 2.05 1.84998C2.45 1.44998 2.95 1.09998 3.45 0.899977C4.5 0.449977 5.75 0.449977 6.8 0.899977C7.35 1.09998 7.8 1.44998 8.2 1.84998L8.85 2.49998L9.5 1.84998C10.35 0.949977 11.45 0.499977 12.65 0.499977C13.85 0.499977 14.9 0.949977 15.75 1.79998C16.6 2.64998 17.05 3.74998 17.05 4.89998C17.05 6.04998 16.6 7.14998 15.75 7.99998L9.3 14.35C9.2 14.5 9.05 14.55 8.85 14.55ZM2.9 2.64998C2.6 2.94998 2.4 3.29998 2.2 3.64998C2 3.99998 2 4.44998 2 4.89998C2 5.34998 2.1 5.69998 2.25 6.09998C2.4 6.49998 2.65 6.79998 2.95 7.09998L8.9 13.05L14.85 7.09998C15.4 6.49998 15.75 5.69998 15.75 4.89998C15.75 4.09998 15.4 3.29998 14.85 2.69998C14.25 2.09998 13.45 1.79998 12.65 1.79998C11.85 1.79998 11.05 2.09998 10.45 2.69998L9.35 3.79998C9.1 4.04998 8.7 4.04998 8.45 3.79998L7.35 2.69998C7.05 2.39998 6.7 2.19998 6.35 1.99998C5.55 1.64998 4.7 1.64998 3.95 1.99998C3.55 2.14998 3.2 2.34998 2.9 2.64998Z" fill="#5F647A"/>
</svg> -->


<svg width="28" height="28" viewBox="0 0 28 28" fill="#F2F3F8" xmlns="http://www.w3.org/2000/svg">
<rect width="28" height="28" rx="14" fill="#F2F3F8"/>
<path d="M13.85 21.55C13.7 21.55 13.55 21.5 13.4 21.35L7.05 14.95C6.65 14.55 6.3 14.05 6.1 13.55C5.9 13.05 5.75 12.45 5.75 11.9C5.75 11.3 5.85 10.75 6.1 10.25C6.3 9.69998 6.65 9.24998 7.05 8.84998C7.45 8.44998 7.95 8.09998 8.45 7.89998C9.5 7.44998 10.75 7.44998 11.8 7.89998C12.35 8.09998 12.8 8.44998 13.2 8.84998L13.85 9.49998L14.5 8.84998C15.35 7.94998 16.45 7.49998 17.65 7.49998C18.85 7.49998 19.9 7.94998 20.75 8.79998C21.6 9.64998 22.05 10.75 22.05 11.9C22.05 13.05 21.6 14.15 20.75 15L14.3 21.35C14.2 21.5 14.05 21.55 13.85 21.55ZM7.9 9.64998C7.6 9.94998 7.4 10.3 7.2 10.65C7 11 7 11.45 7 11.9C7 12.35 7.1 12.7 7.25 13.1C7.4 13.5 7.65 13.8 7.95 14.1L13.9 20.05L19.85 14.1C20.4 13.5 20.75 12.7 20.75 11.9C20.75 11.1 20.4 10.3 19.85 9.69998C19.25 9.09998 18.45 8.79998 17.65 8.79998C16.85 8.79998 16.05 9.09998 15.45 9.69998L14.35 10.8C14.1 11.05 13.7 11.05 13.45 10.8L12.35 9.69998C12.05 9.39998 11.7 9.19998 11.35 8.99998C10.55 8.64998 9.7 8.64998 8.95 8.99998C8.55 9.14998 8.2 9.34998 7.9 9.64998Z" fill="#5F647A"/>
</svg>