
<svg width="17" height="15" viewBox="0 0 17 15" fill="none" xmlns="http://www.w3.org/2000/svg">
<path d="M8.2 14.55C8.05 14.55 7.9 14.5 7.75 14.35L1.4 7.94997C1 7.54997 0.65 7.04997 0.45 6.54997C0.25 6.04997 0.1 5.44997 0.1 4.89997C0.1 4.29997 0.2 3.74997 0.45 3.24997C0.65 2.69997 1 2.24997 1.4 1.84997C1.8 1.44997 2.3 1.09997 2.8 0.899973C3.85 0.449973 5.1 0.449973 6.15 0.899973C6.7 1.09997 7.15 1.44997 7.55 1.84997L8.2 2.49997L8.85 1.84997C9.7 0.949973 10.8 0.499973 12 0.499973C13.2 0.499973 14.25 0.949973 15.1 1.79997C15.95 2.64997 16.4 3.74997 16.4 4.89997C16.4 6.04997 15.95 7.14997 15.1 7.99997L8.65 14.35C8.55 14.5 8.4 14.55 8.2 14.55Z" fill="#ff7042"/>
<path d="M8.2 14.55C8.05 14.55 7.9 14.5 7.75 14.35L1.4 7.94997C1 7.54997 0.65 7.04997 0.45 6.54997C0.25 6.04997 0.1 5.44997 0.1 4.89997C0.1 4.29997 0.2 3.74997 0.45 3.24997C0.65 2.69997 1 2.24997 1.4 1.84997C1.8 1.44997 2.3 1.09997 2.8 0.899973C3.85 0.449973 5.1 0.449973 6.15 0.899973C6.7 1.09997 7.15 1.44997 7.55 1.84997L8.2 2.49997L8.85 1.84997C9.7 0.949973 10.8 0.499973 12 0.499973C13.2 0.499973 14.25 0.949973 15.1 1.79997C15.95 2.64997 16.4 3.74997 16.4 4.89997C16.4 6.04997 15.95 7.14997 15.1 7.99997L8.65 14.35C8.55 14.5 8.4 14.55 8.2 14.55Z" fill="#ff7042"/>
</svg>