<!-- <svg width="18" height="15" viewBox="0 0 18 15" fill="#5F647A" xmlns="http://www.w3.org/2000/svg">
<path d="M8.85 14.55C8.7 14.55 8.55 14.5 8.4 14.35L2.05 7.94998C1.65 7.54998 1.3 7.04998 1.1 6.54998C0.9 6.04998 0.75 5.44998 0.75 4.89998C0.75 4.29998 0.85 3.74998 1.1 3.24998C1.3 2.69998 1.65 2.24998 2.05 1.84998C2.45 1.44998 2.95 1.09998 3.45 0.899977C4.5 0.449977 5.75 0.449977 6.8 0.899977C7.35 1.09998 7.8 1.44998 8.2 1.84998L8.85 2.49998L9.5 1.84998C10.35 0.949977 11.45 0.499977 12.65 0.499977C13.85 0.499977 14.9 0.949977 15.75 1.79998C16.6 2.64998 17.05 3.74998 17.05 4.89998C17.05 6.04998 16.6 7.14998 15.75 7.99998L9.3 14.35C9.2 14.5 9.05 14.55 8.85 14.55ZM2.9 2.64998C2.6 2.94998 2.4 3.29998 2.2 3.64998C2 3.99998 2 4.44998 2 4.89998C2 5.34998 2.1 5.69998 2.25 6.09998C2.4 6.49998 2.65 6.79998 2.95 7.09998L8.9 13.05L14.85 7.09998C15.4 6.49998 15.75 5.69998 15.75 4.89998C15.75 4.09998 15.4 3.29998 14.85 2.69998C14.25 2.09998 13.45 1.79998 12.65 1.79998C11.85 1.79998 11.05 2.09998 10.45 2.69998L9.35 3.79998C9.1 4.04998 8.7 4.04998 8.45 3.79998L7.35 2.69998C7.05 2.39998 6.7 2.19998 6.35 1.99998C5.55 1.64998 4.7 1.64998 3.95 1.99998C3.55 2.14998 3.2 2.34998 2.9 2.64998Z" fill="#5F647A"/>
</svg> -->


<svg width="18" height="15" viewBox="0 0 18 15" fill="none" xmlns="http://www.w3.org/2000/svg">
<path d="M8.85 14.55C8.7 14.55 8.55 14.5 8.4 14.35L2.05 7.94997C1.65 7.54997 1.3 7.04997 1.1 6.54997C0.9 6.04997 0.75 5.44997 0.75 4.89997C0.75 4.29997 0.85 3.74997 1.1 3.24997C1.3 2.69997 1.65 2.24997 2.05 1.84997C2.45 1.44997 2.95 1.09997 3.45 0.899974C4.5 0.449974 5.75 0.449974 6.8 0.899974C7.35 1.09997 7.8 1.44997 8.2 1.84997L8.85 2.49997L9.5 1.84997C10.35 0.949974 11.45 0.499974 12.65 0.499974C13.85 0.499974 14.9 0.949974 15.75 1.79997C16.6 2.64997 17.05 3.74997 17.05 4.89997C17.05 6.04997 16.6 7.14997 15.75 7.99997L9.3 14.35C9.2 14.5 9.05 14.55 8.85 14.55ZM2.9 2.64997C2.6 2.94997 2.4 3.29997 2.2 3.64997C2 3.99997 2 4.44997 2 4.89997C2 5.34997 2.1 5.69997 2.25 6.09997C2.4 6.49997 2.65 6.79997 2.95 7.09997L8.9 13.05L14.85 7.09997C15.4 6.49997 15.75 5.69997 15.75 4.89997C15.75 4.09997 15.4 3.29997 14.85 2.69997C14.25 2.09997 13.45 1.79997 12.65 1.79997C11.85 1.79997 11.05 2.09997 10.45 2.69997L9.35 3.79997C9.1 4.04997 8.7 4.04997 8.45 3.79997L7.35 2.69997C7.05 2.39997 6.7 2.19997 6.35 1.99997C5.55 1.64997 4.7 1.64997 3.95 1.99997C3.55 2.14997 3.2 2.34997 2.9 2.64997Z" fill="#87899C"/>
</svg>
